HIERARCHY
ROOT Hips
{
	OFFSET 4.076200 -17.275196 43.303001
	CHANNELS 6 Xposition Yposition Zposition Zrotation Xrotation Yrotation
	JOINT Chest
	{
		OFFSET -0.689800 0.941999 5.341000
		CHANNELS 6 Xposition Yposition Zposition Zrotation Xrotation Yrotation
		JOINT Chest2
		{
			OFFSET 0.000000 0.000000 4.278900
			CHANNELS 6 Xposition Yposition Zposition Zrotation Xrotation Yrotation
			JOINT Neck
			{
				OFFSET 0.000000 0.000000 9.970299
				CHANNELS 6 Xposition Yposition Zposition Zrotation Xrotation Yrotation
				JOINT Head
				{
					OFFSET 0.000000 0.000002 2.173901
					CHANNELS 6 Xposition Yposition Zposition Zrotation Xrotation Yrotation
					End Site
					{
						OFFSET 0.000000 0.000000 6.488197
					}
				}
			}
			JOINT LeftCollar
			{
				OFFSET 2.472300 -0.285801 5.433899
				CHANNELS 6 Xposition Yposition Zposition Zrotation Xrotation Yrotation
				JOINT LeftShoulder
				{
					OFFSET 5.327700 0.000000 0.000000
					CHANNELS 6 Xposition Yposition Zposition Zrotation Xrotation Yrotation
					JOINT LeftElbow
					{
						OFFSET 0.000000 0.000000 -10.713001
						CHANNELS 6 Xposition Yposition Zposition Zrotation Xrotation Yrotation
						JOINT LeftWrist
						{
							OFFSET 0.000000 -0.000002 -13.396900
							CHANNELS 6 Xposition Yposition Zposition Zrotation Xrotation Yrotation
							End Site
							{
								OFFSET 0.000000 0.000000 -2.173901
							}
						}
					}
				}
			}
			JOINT RightCollar
			{
				OFFSET -2.589400 -1.358400 6.105000
				CHANNELS 6 Xposition Yposition Zposition Zrotation Xrotation Yrotation
				JOINT RightShoulder
				{
					OFFSET -4.580200 0.000000 0.000000
					CHANNELS 6 Xposition Yposition Zposition Zrotation Xrotation Yrotation
					JOINT RightElbow
					{
						OFFSET 0.000000 0.000000 -10.761101
						CHANNELS 6 Xposition Yposition Zposition Zrotation Xrotation Yrotation
						JOINT RightWrist
						{
							OFFSET 0.000000 -0.000002 -13.028500
							CHANNELS 6 Xposition Yposition Zposition Zrotation Xrotation Yrotation
							End Site
							{
								OFFSET 0.000000 0.000000 -2.173901
							}
						}
					}
				}
			}
		}
	}
	JOINT LeftHip
	{
		OFFSET 2.532500 0.486900 -2.489700
		CHANNELS 6 Xposition Yposition Zposition Zrotation Xrotation Yrotation
		JOINT LeftKnee
		{
			OFFSET 0.000000 -0.000002 -18.199398
			CHANNELS 6 Xposition Yposition Zposition Zrotation Xrotation Yrotation
			JOINT LeftAnkle
			{
				OFFSET 0.000000 -0.000002 -16.083900
				CHANNELS 6 Xposition Yposition Zposition Zrotation Xrotation Yrotation
				End Site
				{
					OFFSET 0.000000 -8.641399 0.000000
				}
			}
		}
	}
	JOINT RightHip
	{
		OFFSET -2.112700 -0.049900 -2.711102
		CHANNELS 6 Xposition Yposition Zposition Zrotation Xrotation Yrotation
		JOINT RightKnee
		{
			OFFSET 0.000000 -0.000002 -19.127298
			CHANNELS 6 Xposition Yposition Zposition Zrotation Xrotation Yrotation
			JOINT RightAnkle
			{
				OFFSET 0.000000 -0.000002 -14.874901
				CHANNELS 6 Xposition Yposition Zposition Zrotation Xrotation Yrotation
				End Site
				{
					OFFSET 0.000000 -8.198299 0.000000
				}
			}
		}
	}
}
MOTION
Frames: 10
Frame Time: 0.041667
-3.028202 -66.073502 41.944103 -101.171760 -0.974635 -1.598614 -0.689804 0.941998 5.340995 6.773867 0.258131 2.416128 -0.000021 -0.000001 4.278896 -4.482683 -0.188117 -0.150462 -0.000002 -0.000002 9.970301 3.123702 7.538935 0.997490 -0.000001 -0.000002 2.173896 0.360649 -0.567223 -0.033529 2.472299 -0.285801 5.433902 -4.861865 1.337287 -8.003132 5.327697 0.000003 -0.000000 -30.945333 -42.545569 -46.548549 0.000012 -0.000004 -10.713003 34.012484 -41.740317 76.467875 -0.000009 0.000001 -13.396895 -71.835442 0.097709 -92.798181 -2.589405 -1.358401 6.105005 17.137824 0.249597 7.306631 -4.580202 0.000003 0.000000 36.639191 -33.245399 47.712269 0.000000 -0.000006 -10.761101 -57.735500 -47.575307 -85.905174 -0.000003 -0.000003 -13.028494 -104.264661 1.982802 -145.167898 2.532494 0.486899 -2.489701 22.836469 -24.109441 13.015196 -0.000010 0.000002 -18.199400 -7.027971 49.185084 5.697317 0.000005 -0.000003 -16.083902 3.275327 29.974289 -14.233322 -2.112709 -0.049901 -2.711102 -16.918746 -17.619144 1.270315 -0.000001 0.000006 -19.127293 703.063282 74.153431 -706.066817 -0.000004 -0.000001 -14.874898 25.537256 58.066396 -3.405950
-3.191301 -65.994400 41.773098 -100.879217 -0.750917 -1.761890 -0.689792 0.942000 5.340996 6.660278 0.254477 2.642631 0.000002 -0.000001 4.278905 -4.497362 -0.216581 -0.154157 0.000006 -0.000001 9.970304 3.045929 7.382875 1.083803 -0.000002 0.000000 2.173889 0.414741 -0.610516 -0.068978 2.472303 -0.285803 5.433904 -4.951428 1.175365 -7.930461 5.327700 -0.000005 -0.000008 -30.909273 -42.520178 -46.574459 0.000006 0.000001 -10.713001 34.036059 -41.761365 76.423246 0.000002 -0.000000 -13.396895 -71.898915 -0.138474 -92.731436 -2.589395 -1.358399 6.105005 17.214102 0.072207 7.240142 -4.580203 0.000000 0.000001 36.626934 -33.091461 47.777385 -0.000005 0.000002 -10.761102 -57.856552 -47.574733 -85.881795 0.000001 -0.000001 -13.028502 -104.300670 1.929063 -144.942611 2.532513 0.486898 -2.489711 23.441049 -24.638154 13.633918 0.000004 -0.000002 -18.199400 -9.423831 50.607102 6.913344 0.000001 -0.000003 -16.083904 4.477759 28.564102 -13.727201 -2.112694 -0.049901 -2.711108 -17.396593 -18.116332 1.099114 0.000000 0.000003 -19.127298 704.032404 75.278691 -706.384120 -0.000003 0.000002 -14.874902 24.478502 57.856094 -2.677818
-3.346299 -65.912796 41.609402 -100.660480 -0.542299 -1.912427 -0.689814 0.941998 5.341000 6.689882 0.298035 2.829963 -0.000010 -0.000000 4.278896 -4.565031 -0.236892 -0.159058 0.000003 -0.000003 9.970296 2.965580 7.228345 1.206433 0.000003 0.000002 2.173888 0.465367 -0.651069 -0.141107 2.472304 -0.285804 5.433895 -5.041597 0.973176 -7.848747 5.327689 -0.000006 0.000002 -30.822779 -42.523501 -46.560071 -0.000000 0.000007 -10.712995 34.024007 -41.858507 76.316265 -0.000004 -0.000012 -13.396881 -71.927903 -0.161234 -92.777745 -2.589393 -1.358402 6.104999 17.365023 -0.136732 7.188127 -4.580204 0.000002 -0.000000 36.543496 -32.927987 47.834202 0.000003 -0.000001 -10.761109 -57.997295 -47.459901 -85.804723 0.000004 -0.000004 -13.028500 -104.128310 1.960043 -145.075527 2.532489 0.486897 -2.489706 24.146286 -25.208678 14.228466 0.000003 -0.000002 -18.199398 -12.230163 52.059644 8.488879 -0.000000 -0.000002 -16.083899 5.613667 27.227340 -12.840846 -2.112709 -0.049900 -2.711110 -17.702505 -18.514105 0.935315 -0.000004 0.000003 -19.127302 704.507457 76.205978 -706.419582 -0.000002 -0.000001 -14.874899 23.446154 57.705673 -1.905871
-3.489700 -65.835602 41.452499 -100.580232 0.154155 -1.986783 -0.689798 0.942000 5.341003 6.875573 -0.140398 2.990119 0.000001 -0.000001 4.278900 -4.651682 -0.282168 -0.167233 0.000005 0.000002 9.970295 2.898514 7.094773 1.338753 0.000004 0.000002 2.173901 0.485708 -0.709598 -0.149878 2.472299 -0.285801 5.433900 -5.157427 0.790615 -7.677993 5.327699 0.000000 0.000004 -30.711382 -42.577436 -46.682451 0.000012 0.000006 -10.713003 33.999620 -41.581488 76.333067 -0.000007 -0.000003 -13.396907 -72.251339 -0.177497 -92.811670 -2.589399 -1.358399 6.104999 17.652661 -0.325818 7.074429 -4.580197 0.000005 0.000008 36.317994 -32.714403 47.935736 0.000005 0.000000 -10.761107 -58.236829 -47.590105 -85.973244 0.000001 0.000002 -13.028499 -104.320430 1.811092 -144.705972 2.532501 0.486899 -2.489704 25.290669 -26.230358 15.013060 -0.000002 -0.000001 -18.199402 -15.710176 53.452309 10.511051 -0.000001 -0.000004 -16.083897 6.698118 26.007352 -11.881749 -2.112698 -0.049899 -2.711100 -17.968208 -19.323819 0.551993 -0.000004 0.000003 -19.127300 706.581321 77.201587 -707.879330 0.000002 0.000001 -14.874904 22.374081 57.516982 -0.665107
-3.628401 -65.755493 41.301102 -100.385455 0.163509 -2.108883 -0.689808 0.941997 5.340997 6.826891 0.105231 3.103481 0.000001 0.000000 4.278903 -4.679620 -0.323444 -0.173263 0.000011 -0.000002 9.970302 2.949707 6.976958 1.442151 -0.000004 0.000000 2.173898 0.549790 -0.818627 -0.185934 2.472307 -0.285802 5.433901 -5.236559 0.596620 -7.510666 5.327691 0.000001 0.000004 -30.597137 -42.633853 -46.782838 -0.000003 -0.000000 -10.713000 33.934586 -41.415361 76.256432 -0.000001 0.000005 -13.396895 -72.449893 -0.235705 -92.805195 -2.589392 -1.358403 6.105000 17.893434 -0.499779 7.051760 -4.580204 0.000002 -0.000001 36.044998 -32.768673 47.924234 0.000003 0.000003 -10.761105 -58.031357 -47.737562 -85.846196 -0.000005 0.000000 -13.028488 -104.086195 1.809468 -144.631004 2.532490 0.486895 -2.489701 25.698247 -26.668634 15.368050 0.000004 0.000003 -18.199400 -18.766264 54.720679 12.601957 -0.000005 -0.000002 -16.083899 7.783582 24.965984 -10.989810 -2.112705 -0.049903 -2.711105 -18.258199 -19.466584 0.442401 -0.000003 -0.000001 -19.127295 706.488704 77.925478 -707.404004 -0.000002 -0.000002 -14.874902 21.835770 57.488302 0.594933
-3.766701 -65.674500 41.159302 -100.292872 0.174168 -2.247973 -0.689804 0.942000 5.340998 6.142488 0.318535 3.054267 -0.000004 -0.000001 4.278891 -4.047511 -0.273550 -0.156297 0.000001 -0.000002 9.970296 3.072164 6.838291 1.701047 0.000001 0.000003 2.173890 0.564108 -0.951617 -0.290304 2.472308 -0.285801 5.433897 -5.026310 0.271453 -7.432193 5.327697 -0.000000 0.000000 -30.318322 -42.857105 -46.437247 0.000004 0.000004 -10.713003 33.634512 -42.064543 76.029055 0.000002 -0.000008 -13.396900 -71.992946 -0.254383 -92.747241 -2.589392 -1.358401 6.104999 17.948426 -0.776854 7.701069 -4.580205 0.000002 -0.000002 35.698861 -33.178166 47.367010 0.000000 -0.000000 -10.761102 -57.705734 -48.033039 -85.647273 0.000003 -0.000000 -13.028495 -104.099801 1.815599 -144.369326 2.532491 0.486897 -2.489708 26.281084 -27.097034 15.729646 0.000004 0.000006 -18.199400 -22.235522 55.885448 15.066677 0.000001 -0.000002 -16.083899 8.894298 24.028667 -10.291191 -2.112708 -0.049899 -2.711107 -18.381967 -19.530479 0.356323 -0.000000 0.000003 -19.127300 705.411829 78.508339 -706.045124 0.000006 0.000002 -14.874903 21.542939 57.396634 1.692616
-3.904600 -65.590103 41.027000 -100.229659 0.186531 -2.407869 -0.689807 0.941998 5.341003 5.552991 0.538531 3.049384 -0.000003 -0.000004 4.278903 -3.520056 -0.330492 -0.156885 0.000001 -0.000001 9.970303 3.210516 6.801798 1.964508 -0.000003 -0.000000 2.173888 0.536640 -1.069667 -0.352235 2.472305 -0.285804 5.433898 -4.721919 0.053127 -7.396624 5.327702 -0.000005 0.000000 -29.940226 -43.229080 -46.036558 0.000010 0.000005 -10.713004 33.407234 -42.105213 75.968800 0.000001 -0.000007 -13.396896 -72.131613 -0.123773 -92.722454 -2.589401 -1.358401 6.105005 17.746589 -0.943100 8.979502 -4.580201 -0.000003 -0.000011 35.372129 -34.054893 46.189520 -0.000003 0.000005 -10.761101 -57.287177 -48.117498 -85.317628 0.000002 0.000001 -13.028507 -103.902771 1.857662 -144.189733 2.532499 0.486898 -2.489697 26.679885 -27.502913 16.021021 -0.000000 -0.000002 -18.199396 -25.565468 56.864275 17.612867 -0.000000 -0.000004 -16.083899 9.970028 23.178867 -9.718575 -2.112707 -0.049902 -2.711101 -18.553102 -19.602476 0.266216 -0.000003 0.000005 -19.127298 709.572398 79.439232 -709.443444 -0.000010 -0.000000 -14.874902 20.795612 56.919576 2.169064
-4.039101 -65.510292 40.900101 -100.265326 0.199222 -2.574735 -0.689818 0.941998 5.341000 4.949706 0.718476 3.055017 -0.000005 -0.000001 4.278904 -3.150968 -0.321613 -0.265175 -0.000006 0.000002 9.970292 3.619265 6.712599 2.327879 -0.000002 0.000000 2.173898 0.514102 -1.186428 -0.439577 2.472302 -0.285800 5.433895 -4.216998 -0.197846 -7.225832 5.327695 -0.000003 -0.000002 -29.234098 -43.750763 -45.485997 -0.000010 0.000004 -10.713001 33.008945 -42.133531 76.011959 0.000003 0.000000 -13.396902 -72.208446 -0.204459 -92.470598 -2.589397 -1.358399 6.104993 18.018058 -1.078382 9.299499 -4.580204 -0.000003 -0.000001 35.641618 -34.104316 46.223934 -0.000001 0.000005 -10.761101 -57.123112 -48.251916 -85.014688 0.000003 0.000010 -13.028501 -103.707967 1.920442 -144.159161 2.532478 0.486898 -2.489699 27.224330 -27.845571 16.294294 0.000000 0.000002 -18.199402 -28.984895 57.697313 20.313889 0.000004 -0.000003 -16.083899 10.985955 22.327320 -9.024006 -2.112713 -0.049901 -2.711102 -18.707642 -19.708501 0.206269 0.000004 -0.000002 -19.127295 711.063291 80.099377 -710.337925 0.000000 0.000001 -14.874901 20.751870 56.709838 2.472817
-4.183199 -65.427795 40.776398 -100.189490 0.205937 -2.661674 -0.689803 0.941999 5.341006 4.101747 0.880316 2.942574 -0.000003 -0.000003 4.278900 -2.346588 -0.302214 -0.228162 -0.000005 -0.000001 9.970293 3.852350 6.587154 2.543126 -0.000007 -0.000000 2.173898 0.454735 -1.339680 -0.575728 2.472299 -0.285801 5.433901 -3.900706 -0.448171 -7.190179 5.327703 -0.000002 -0.000000 -28.632839 -44.237096 -44.919104 0.000006 0.000006 -10.712997 32.766460 -42.137715 76.150578 -0.000001 -0.000006 -13.396895 -72.388360 -0.235404 -92.311318 -2.589397 -1.358400 6.105000 18.037169 -1.250870 9.528192 -4.580203 -0.000000 0.000003 35.795164 -34.221963 46.268603 0.000002 -0.000001 -10.761099 -56.804361 -48.293481 -84.620983 0.000000 0.000007 -13.028502 -103.483554 2.010915 -144.054577 2.532493 0.486897 -2.489697 27.437249 -28.104956 16.424621 -0.000001 -0.000003 -18.199398 -31.676638 58.306586 22.533882 0.000004 -0.000001 -16.083902 12.147914 21.683171 -9.944214 -2.112700 -0.049903 -2.711096 -19.011401 -19.755187 0.084975 -0.000000 -0.000003 -19.127289 715.398057 80.832673 -714.016446 -0.000003 0.000001 -14.874903 20.291264 56.302284 1.806363
-4.328902 -65.353500 40.660904 -100.255019 0.210397 -2.721345 -0.689801 0.942000 5.341001 3.393926 1.040189 2.768452 0.000006 0.000002 4.278897 -1.558690 -0.269177 -0.107461 -0.000004 -0.000001 9.970292 3.978629 6.450327 2.805468 0.000003 0.000002 2.173889 0.448312 -1.463001 -0.696046 2.472297 -0.285802 5.433902 -4.940096 -3.763880 -7.148445 5.327710 -0.000000 -0.000009 -25.823895 -41.744863 -42.516432 -0.000008 -0.000002 -10.713003 32.625164 -42.212113 76.342384 0.000000 -0.000011 -13.396898 -72.571730 -0.267588 -92.179379 -2.589406 -1.358401 6.105000 17.937335 -1.460647 10.579467 -4.580198 0.000003 -0.000000 35.636194 -34.769662 45.471271 -0.000001 -0.000003 -10.761103 -56.972418 -48.439439 -84.725792 -0.000000 0.000002 -13.028491 -103.781405 1.853358 -143.433426 2.532499 0.486897 -2.489697 27.870420 -28.344015 16.529712 0.000002 -0.000003 -18.199398 -34.571508 58.852065 24.928092 0.000000 -0.000006 -16.083900 13.225571 20.943836 -10.781058 -2.112704 -0.049899 -2.711101 -19.164741 -19.771000 -0.004667 -0.000009 0.000003 -19.127298 719.807081 81.490796 -717.873154 0.000006 -0.000001 -14.874903 19.930398 55.928857 1.144175
